<?xml version="1.0" standalone="no"?>
<!DOCTYPE svg PUBLIC "-//W3C//DTD SVG 20010904//EN"
 "http://www.w3.org/TR/2001/REC-SVG-20010904/DTD/svg10.dtd">
<svg version="1.0" xmlns="http://www.w3.org/2000/svg"
 width="260.000000pt" height="260.000000pt" viewBox="0 0 260.000000 260.000000"
 preserveAspectRatio="xMidYMid meet">
<metadata>
Created by potrace 1.11, written by Peter Selinger 2001-2013
</metadata>
<g transform="translate(0.000000,260.000000) scale(0.100000,-0.100000)"
fill="#000000" stroke="none">
<path d="M0 1300 l0 -1300 1300 0 1300 0 0 1300 0 1300 -1300 0 -1300 0 0
-1300z m1540 690 c132 -21 283 -85 365 -154 l39 -33 -52 -81 c-29 -44 -62 -88
-73 -98 -31 -28 -85 -22 -159 19 -92 50 -169 70 -270 70 -264 -2 -426 -197
-414 -497 3 -82 39 -202 78 -264 84 -134 247 -201 421 -174 41 6 91 18 110 27
l36 14 -3 103 -3 103 -75 3 c-41 1 -85 4 -96 7 -33 7 -45 51 -42 151 l3 89
263 3 262 2 0 -308 c0 -351 9 -317 -95 -371 -144 -73 -262 -95 -487 -89 -141
4 -160 7 -243 36 -234 84 -413 286 -466 527 -21 94 -16 304 9 396 76 279 301
476 595 519 78 11 224 11 297 0z"/>
</g>
</svg>
